<?xml version="1.0" encoding="UTF-8" standalone="no"?>
<!-- Created with Inkscape (http://www.inkscape.org/) -->

<svg
   xmlns:dc="http://purl.org/dc/elements/1.1/"
   xmlns:cc="http://creativecommons.org/ns#"
   xmlns:rdf="http://www.w3.org/1999/02/22-rdf-syntax-ns#"
   xmlns:svg="http://www.w3.org/2000/svg"
   xmlns="http://www.w3.org/2000/svg"
   xmlns:sodipodi="http://sodipodi.sourceforge.net/DTD/sodipodi-0.dtd"
   xmlns:inkscape="http://www.inkscape.org/namespaces/inkscape"
   width="210mm"
   height="297mm"
   viewBox="0 0 210 297"
   version="1.1"
   id="svg8"
   inkscape:version="0.92.3 (2405546, 2018-03-11)"
   sodipodi:docname="cameraIcons.svg">
  <defs
     id="defs2" />
  <sodipodi:namedview
     id="base"
     pagecolor="#ffffff"
     bordercolor="#666666"
     borderopacity="1.0"
     inkscape:pageopacity="0.0"
     inkscape:pageshadow="2"
     inkscape:zoom="1.28"
     inkscape:cx="182.01023"
     inkscape:cy="624.37838"
     inkscape:document-units="mm"
     inkscape:current-layer="layer1"
     showgrid="false"
     showguides="true"
     inkscape:window-width="1920"
     inkscape:window-height="1017"
     inkscape:window-x="-8"
     inkscape:window-y="-8"
     inkscape:window-maximized="1" />
  <metadata
     id="metadata5">
    <rdf:RDF>
      <cc:Work
         rdf:about="">
        <dc:format>image/svg+xml</dc:format>
        <dc:type
           rdf:resource="http://purl.org/dc/dcmitype/StillImage" />
        <dc:title></dc:title>
      </cc:Work>
    </rdf:RDF>
  </metadata>
  <g
     inkscape:label="Camada 1"
     inkscape:groupmode="layer"
     id="layer1">
    <path
       style="fill:#ffffff;stroke:none;stroke-width:0.41102538;stroke-miterlimit:4;stroke-dasharray:none"
       d="m 170.99609,562.18745 c -27.8677,7e-5 -50.45891,22.06176 -50.45898,50.4688 7e-5,28.40704 22.59128,50.60684 50.45898,50.60691 27.8677,-7e-5 50.45892,-22.19987 50.45899,-50.60691 -7e-5,-28.40704 -22.59129,-50.46874 -50.45899,-50.4688 z m 0.0977,3.48638 c 25.87214,7e-5 46.84563,20.97356 46.8457,46.8457 -7e-5,25.87214 -20.97356,46.84563 -46.8457,46.8457 -25.87214,-7e-5 -46.84563,-20.97356 -46.8457,-46.8457 7e-5,-25.87214 20.97356,-46.84563 46.8457,-46.8457 z"
       id="path4273-7"
       transform="scale(0.26458333)"
       inkscape:connector-curvature="0"
       sodipodi:nodetypes="cccccccccc" />
    <path
       style="fill:#ffffff;stroke:none;stroke-width:0.32931709px;stroke-linecap:butt;stroke-linejoin:miter;stroke-opacity:1"
       d="m 42.681534,154.84601 c -0.749716,-0.001 -1.591117,1.59008 -1.591117,1.59008 h -3.481959 c -0.433848,0.0627 -0.442783,0.29581 -0.499192,0.50953 v 10.47688 c 0.02713,0.57801 0.258447,0.44197 0.43098,0.51108 l 15.203722,0.0295 c 0.691515,0.092 0.657556,-0.30023 0.66456,-0.66456 v -10.35286 c 0.10683,-0.79525 -0.331658,-0.5002 -0.581877,-0.58136 h -3.575492 c 0,0 -0.802815,-1.5341 -1.518253,-1.51825 -1.438201,0.0319 -3.319137,0.002 -5.051372,0 z m 2.556951,2.8484 a 4.4285439,4.4285439 0 0 1 4.42867,4.42816 4.4285439,4.4285439 0 0 1 -4.42867,4.42867 4.4285439,4.4285439 0 0 1 -4.428153,-4.42867 4.4285439,4.4285439 0 0 1 4.428153,-4.42816 z m -0.04186,0.76895 a 3.700849,3.700849 0 0 0 -3.70055,3.70106 3.700849,3.700849 0 0 0 3.70055,3.70107 3.700849,3.700849 0 0 0 3.701065,-3.70107 3.700849,3.700849 0 0 0 -3.701065,-3.70106 z m 0,1.35134 a 2.3909978,2.3909978 0 0 1 2.391068,2.39106 2.3909978,2.3909978 0 0 1 -2.391068,2.39159 2.3909978,2.3909978 0 0 1 -2.39055,-2.39159 2.3909978,2.3909978 0 0 1 2.39055,-2.39106 z"
       id="path3724"
       inkscape:connector-curvature="0" />
    <path
       style="fill:#ffffff;stroke:none;stroke-width:0.21864891px;stroke-linecap:butt;stroke-linejoin:miter;stroke-opacity:1"
       d="m 64.830662,134.3674 c 0,0 -4.62366,2.66457 -1.435647,6.48802 1.58161,1.89687 5.991063,2.59521 5.991063,2.59521 l 0.02761,1.18718 3.671945,-2.04304 -3.671945,-2.18108 1e-6,1.27 c -2.007279,-0.18692 -3.511736,-0.99719 -4.831506,-2.12587 -2.331927,-2.44942 -0.730544,-4.07718 0.248479,-5.19042 z"
       id="path3761-9"
       inkscape:connector-curvature="0"
       sodipodi:nodetypes="csccccccc" />
    <path
       style="fill:#ffffff;stroke:none;stroke-width:0.21864891px;stroke-linecap:butt;stroke-linejoin:miter;stroke-opacity:1"
       d="m 77.44779,134.39501 c 4.72527,4.47198 -2.240177,7.39493 -4.306941,7.23346 l 1.297605,0.88347 -1.463257,0.85587 c 6.586085,-0.34475 9.955059,-6.14985 4.472593,-8.9728 z"
       id="path3763-6"
       inkscape:connector-curvature="0"
       sodipodi:nodetypes="ccccc" />
    <path
       style="fill:#ffffff;stroke:none;stroke-width:0.21864891px;stroke-linecap:butt;stroke-linejoin:miter;stroke-opacity:1"
       d="m 69.334602,130.53736 c -0.497772,-6.9e-4 -1.056093,1.05567 -1.056093,1.05567 h -2.312041 c -0.288052,0.0417 -0.293934,0.19633 -0.331389,0.33822 v 6.9562 c 0.01802,0.38376 0.171569,0.29318 0.286122,0.33907 l 10.094577,0.0197 c 0.459127,0.0611 0.436491,-0.19924 0.441142,-0.44114 v -6.87378 c 0.07093,-0.52799 -0.220349,-0.33216 -0.38648,-0.38605 h -2.373963 c 0,0 -0.532823,-1.01835 -1.007836,-1.00784 -0.954888,0.0212 -2.203929,0.002 -3.354039,0 z m 1.697944,1.89098 a 2.940316,2.940316 0 0 1 2.940231,2.94023 2.940316,2.940316 0 0 1 -2.940231,2.94022 2.940316,2.940316 0 0 1 -2.940229,-2.94022 2.940316,2.940316 0 0 1 2.940229,-2.94023 z"
       id="path3724-8"
       inkscape:connector-curvature="0" />
    <path
       style="fill:#ffffff;stroke:none;stroke-width:0.06778679;stroke-miterlimit:4;stroke-dasharray:none"
       d="m 71.004789,132.93909 a 2.4571655,2.4571655 0 0 0 -2.457238,2.45723 2.4571655,2.4571655 0 0 0 2.457238,2.45724 2.4571655,2.4571655 0 0 0 2.457237,-2.45724 2.4571655,2.4571655 0 0 0 -2.457237,-2.45723 z m 0,0.89723 a 1.5874944,1.5874944 0 0 1 1.58734,1.58733 1.5874944,1.5874944 0 0 1 -1.58734,1.58777 1.5874944,1.5874944 0 0 1 -1.587339,-1.58777 1.5874944,1.5874944 0 0 1 1.587339,-1.58733 z"
       id="path3726-4-6"
       inkscape:connector-curvature="0" />
    <path
       style="fill:#ffffff;stroke:none;stroke-width:1.07673824px;stroke-linecap:butt;stroke-linejoin:miter;stroke-opacity:1"
       d="M 105.38477 491.2793 L 102.94336 493.94727 C 105.00922 494.29174 106.95956 494.89304 108.75781 495.73047 L 111.19727 492.88867 L 105.38477 491.2793 z M 101.98047 494.99609 L 100.6582 496.44141 C 102.85279 496.64327 104.90346 497.19987 106.78125 498.03516 L 107.83594 496.80469 C 106.01337 495.93252 104.05298 495.30155 101.98047 494.99609 z M 99.771484 497.41016 L 87.273438 511.05859 L 96.537109 513.29102 L 101.95898 507.93945 L 98.914062 507.20508 L 106.00195 498.94336 C 104.0831 498.06849 101.98314 497.53824 99.771484 497.41016 z M 103.22461 508.24414 L 97.824219 513.60156 L 100.59375 514.26953 L 98.947266 516.50781 C 101.53169 513.92308 103.96664 511.49327 106.45508 509.02148 L 103.22461 508.24414 z M 107.77148 509.33984 C 101.42094 515.64229 95.067499 521.94172 88.751953 528.2793 L 88.878906 529.78711 C 91.367448 531.48466 94.314983 532.54077 97.490234 532.76758 L 110.35938 525.99023 L 102.36719 524.06445 L 112.76758 510.54297 L 107.77148 509.33984 z M 88.076172 520.20312 L 88.197266 521.64258 L 89.345703 520.50977 L 88.076172 520.20312 z M 90.59375 520.81055 L 88.316406 523.08594 L 88.628906 526.79883 C 90.238522 525.20247 92.103093 523.33617 93.847656 521.59375 L 90.59375 520.81055 z M 89.027344 531.57227 L 89.166016 533.23242 C 90.493188 533.94651 91.909907 534.51365 93.392578 534.92578 L 95.521484 533.80469 C 93.153219 533.44088 90.969141 532.67792 89.027344 531.57227 z M 89.324219 535.13086 L 89.480469 536.98633 L 91.451172 535.94922 C 90.721582 535.71049 90.011792 535.4382 89.324219 535.13086 z "
       transform="scale(0.26458333)"
       id="path3801-0" />
    <path
       inkscape:connector-curvature="0"
       style="fill:#ffffff;stroke:none;stroke-width:0.1;stroke-miterlimit:4;stroke-dasharray:none"
       d="m 26.143402,130.86868 a 5.5042782,5.5042782 0 0 0 -5.504574,5.50406 5.5042782,5.5042782 0 0 0 5.504574,5.50406 5.5042782,5.5042782 0 0 0 5.504059,-5.50406 5.5042782,5.5042782 0 0 0 -5.504059,-5.50406 z m 0.0093,0.4961 a 4.9609375,4.9609375 0 0 1 4.960941,4.96094 4.9609375,4.9609375 0 0 1 -4.960937,4.96093 4.9609375,4.9609375 0 0 1 -4.960938,-4.96093 4.9609375,4.9609375 0 0 1 4.960938,-4.96094 z"
       id="path3803-7" />
    <path
       style="fill:#ffffff;stroke:none;stroke-width:0.26458332px;stroke-linecap:butt;stroke-linejoin:miter;stroke-opacity:1"
       d="m 22.150947,139.56196 7.370542,-7.27605 0.377978,0.66146 -7.27604,7.27604 z"
       id="path3821-7"
       inkscape:connector-curvature="0"
       sodipodi:nodetypes="ccccc" />
    <path
       style="fill:#ffffff;stroke:none;stroke-width:0.28488699px;stroke-linecap:butt;stroke-linejoin:miter;stroke-opacity:1"
       d="m 15.640443,131.21107 -4.791751,5.23365 3.52436,0.84951 -1.479313,2.01162 -1.832666,-0.44174 0.371613,4.44044 5.524227,-2.90918 -2.114613,-0.5097 2.751717,-3.57745 -3.665333,-0.88348 3.249926,-3.78782 z"
       id="path3801-0-8"
       inkscape:connector-curvature="0" />
  </g>
</svg>
